<svg width="19" height="20" viewBox="0 0 19 20" fill="none" xmlns="http://www.w3.org/2000/svg">
<path d="M9.2401 17.5516C9.2401 18.9039 8.17054 20 6.85101 20C5.53147 20 4.46191 18.9039 4.46191 17.5516C4.46191 16.1992 5.53147 15.1031 6.85101 15.1031C8.17054 15.1031 9.2401 16.1992 9.2401 17.5516Z" fill="#939393"/>
<path d="M17.0223 17.5516C17.0223 18.9039 15.9528 20 14.6332 20C13.3137 20 12.2441 18.9039 12.2441 17.5516C12.2441 16.1992 13.3137 15.1031 14.6332 15.1031C15.9528 15.1031 17.0223 16.1992 17.0223 17.5516Z" fill="#939393"/>
<path d="M18.7641 5.39332C18.5518 5.12561 18.2416 4.97502 17.9096 4.97502H4.53867L3.76591 1.00951C3.72237 0.786413 3.54822 0.607937 3.3251 0.563319L0.185034 0L0 1.09874L2.77003 1.59513L5.06657 13.3801C5.16997 13.8988 5.61623 14.2892 6.13324 14.2892H16.3153C16.8269 14.2892 17.2623 13.9211 17.3765 13.4135L18.9711 6.33573C19.0473 6.00109 18.9711 5.66089 18.7643 5.39318L18.7641 5.39332Z" fill="#939393"/>
</svg>
