<svg width="168" height="150" viewBox="0 0 168 150" fill="none" xmlns="http://www.w3.org/2000/svg">
<path d="M162.884 42.9407H133.036L108.364 1.80948C107.863 0.964692 107.046 0.354226 106.094 0.113747C105.14 -0.12797 104.13 0.018787 103.287 0.523197C102.444 1.02638 101.837 1.84525 101.6 2.79732C101.363 3.74815 101.518 4.75449 102.027 5.59313L124.43 42.9421H40.5807L62.9827 5.59313C63.4921 4.75453 63.6455 3.74815 63.4093 2.79732C63.1731 1.84525 62.566 1.02635 61.7215 0.523197C60.8783 0.0187807 59.8681 -0.127964 58.916 0.113747C57.9627 0.354233 57.1467 0.964692 56.6459 1.80948L31.975 42.9407H5.11654C3.76013 42.9432 2.4594 43.4809 1.49983 44.4379C0.54026 45.3949 0.00123448 46.6923 0 48.0453V69.5088C0.00123638 70.8617 0.540323 72.159 1.49983 73.1161C2.4593 74.0719 3.76006 74.6109 5.11654 74.6121H8.28914L24.8726 147.135C25.2559 148.811 26.7496 149.998 28.4732 149.998H139.526C141.249 149.998 142.743 148.811 143.126 147.135L159.71 74.6121H162.882C164.239 74.6108 165.539 74.0719 166.499 73.1149C167.459 72.1579 167.998 70.8618 168 69.5076V48.0453C167.998 46.6912 167.458 45.395 166.499 44.438C165.539 43.4809 164.239 42.942 162.882 42.9408L162.884 42.9407ZM136.582 142.631H31.4204L15.8669 74.61H152.138L136.582 142.631ZM160.615 67.2444L7.38481 67.2457V50.3069H160.615V67.2444Z" fill="#A0130C"/>
<path d="M46.8115 123.603C47.7921 123.603 48.7305 123.215 49.4229 122.525C50.1166 121.833 50.5048 120.897 50.5048 119.92V89.5682C50.5048 87.5333 48.8517 85.8845 46.8115 85.8845C44.7726 85.8845 43.1195 87.5333 43.1195 89.5682V119.92C43.1183 120.897 43.5078 121.833 44.2002 122.525C44.8926 123.215 45.8323 123.603 46.8116 123.603H46.8115Z" fill="#A0130C"/>
<path d="M84.0009 123.603C84.9802 123.603 85.9199 123.215 86.6123 122.525C87.3047 121.833 87.6942 120.897 87.6942 119.92V89.5682C87.6942 87.5333 86.0398 85.8845 84.0009 85.8845C81.962 85.8845 80.3076 87.5333 80.3076 89.5682V119.92C80.3076 120.897 80.6971 121.833 81.3895 122.525C82.0819 123.215 83.0216 123.603 84.0009 123.603Z" fill="#A0130C"/>
<path d="M121.19 123.603C122.17 123.603 123.109 123.215 123.802 122.525C124.494 121.833 124.884 120.897 124.882 119.92V89.5682C124.882 87.5333 123.229 85.8845 121.19 85.8845C119.15 85.8845 117.497 87.5333 117.497 89.5682V119.92C117.497 120.897 117.885 121.833 118.579 122.525C119.271 123.215 120.21 123.603 121.19 123.603H121.19Z" fill="#A0130C"/>
</svg>
