<svg width="20" height="20" viewBox="0 0 20 20" fill="none" xmlns="http://www.w3.org/2000/svg">
<path fill-rule="evenodd" clip-rule="evenodd" d="M0 10.0559C0 15.0279 3.61111 19.162 8.33333 20L8.38898 19.9552C8.37043 19.9516 8.35188 19.9479 8.33334 19.9442V12.8492H5.83334V10.0559H8.33334V7.82132C8.33334 5.30735 9.94445 3.91071 12.2222 3.91071C12.9444 3.91071 13.7222 4.02244 14.4444 4.13417V6.704H13.1667C11.9444 6.704 11.6667 7.31852 11.6667 8.10065V10.0559H14.3333L13.8889 12.8492H11.6667V19.9442C11.6481 19.9479 11.6296 19.9516 11.611 19.9552L11.6667 20C16.3889 19.162 20 15.0279 20 10.0559C20 4.52513 15.5 0 10 0C4.5 0 0 4.52513 0 10.0559Z" fill="#A0130C"/>
</svg>
