<svg width="21" height="21" viewBox="0 0 21 21" fill="none" xmlns="http://www.w3.org/2000/svg">
<path fill-rule="evenodd" clip-rule="evenodd" d="M20.9325 1.10237C21.2156 0.442595 20.5574 -0.215608 19.8976 0.0674691L7.90901 5.21113L7.91027 5.21316C7.85212 5.24965 7.66319 5.43582 7.46869 5.83897C7.28743 6.2147 7.14362 6.69435 7.10581 7.20787C7.03232 8.20607 7.35165 9.31726 8.61045 10.1246C10.7983 11.5279 11.7594 13.3769 12.0396 15.0176C12.1781 15.8289 12.1499 16.5866 12.0253 17.2112C11.9352 17.6628 11.7808 18.1124 11.5509 18.4599L12.0758 18.9848C12.4719 19.3809 13.1486 19.2445 13.3721 18.7235L20.9325 1.10237ZM9.96169 7.5422C10.5689 8.14937 11.5602 8.14243 12.1759 7.52671C12.7917 6.911 12.7986 5.91965 12.1914 5.31248C11.5843 4.70532 10.5929 4.71225 9.97718 5.32797C9.36145 5.94369 9.35452 6.93503 9.96169 7.5422ZM14.9534 12.3423C14.3376 12.958 13.3463 12.965 12.7391 12.3578C12.1319 11.7506 12.1389 10.7593 12.7546 10.1436C13.3703 9.52785 14.3617 9.52091 14.9688 10.1281C15.576 10.7352 15.5691 11.7266 14.9534 12.3423ZM15.4866 5.36716C16.0938 5.97432 17.0852 5.96739 17.7009 5.35167C18.3166 4.73595 18.3236 3.74461 17.7164 3.13744C17.1092 2.53027 16.1179 2.53721 15.5021 3.15293C14.8864 3.76865 14.8795 4.75999 15.4866 5.36716Z" fill="#939393"/>
<path d="M2.27627 7.62783L5.67405 6.17003C5.59788 6.46937 5.54388 6.78614 5.5198 7.11319C5.41071 8.59497 5.92326 10.3024 7.73867 11.4667C9.54428 12.6248 10.2633 14.0853 10.4718 15.3066C10.5777 15.9264 10.5523 16.4878 10.4659 16.9211C10.4386 17.058 10.406 17.1781 10.3714 17.2804L2.01494 8.92406C1.6189 8.52802 1.75532 7.85135 2.27627 7.62783Z" fill="#939393"/>
<path d="M1.44333 9.23947C1.11639 8.91254 0.582582 8.91627 0.251037 9.24781C-0.0805078 9.57935 -0.0842419 10.1132 0.242698 10.4401L10.56 20.7573C10.8869 21.0842 11.4208 21.0805 11.7523 20.7489C12.0838 20.4174 12.0876 19.8836 11.7606 19.5567L1.44333 9.23947Z" fill="#939393"/>
</svg>
