<svg width="19" height="19" viewBox="0 0 19 19" fill="none" xmlns="http://www.w3.org/2000/svg">
<path fill-rule="evenodd" clip-rule="evenodd" d="M0.0391396 5.86537C-0.387991 2.23253 2.81553 0.166579 3.10026 0.0958416C3.3139 0.0245283 3.66975 -0.402835 5.09351 1.37801C6.44615 3.15885 7.44277 4.58346 6.58851 5.36708C5.663 6.15069 4.31053 7.14792 5.02239 8.5012C5.59188 9.71221 9.2937 13.3452 10.4329 13.9149C11.8566 14.6272 12.7821 13.2738 13.5651 12.419C14.3482 11.493 15.8431 12.4903 17.6228 13.8436C19.4026 15.2683 18.9755 15.6245 18.9042 15.9094C18.833 16.1232 16.7686 19.3287 13.0666 18.9724C9.22237 18.545 0.394941 9.71217 0.038928 5.86567L0.0391396 5.86537Z" fill="#939393"/>
</svg>
