<svg width="10" height="15" viewBox="0 0 10 15" fill="none" xmlns="http://www.w3.org/2000/svg">
<path d="M4.99984 0C2.2734 0 0 2.02073 0 4.8831C0 5.97053 0.430599 7.251 0.892829 8.09293L4.52569 14.72C4.5866 14.8331 4.68773 14.9207 4.81005 14.966C4.93249 15.0113 5.06751 15.0113 5.18995 14.966C5.31226 14.9207 5.41341 14.8331 5.47432 14.72L9.10717 8.09293C9.5694 7.25088 10 5.9704 10 4.8831C10 2.02069 7.72657 0 5.00016 0H4.99984ZM4.99984 1.04644C7.20439 1.04644 8.92829 2.54444 8.92829 4.88316C8.92829 5.67022 8.52884 6.93223 8.16374 7.59715L4.99984 13.3578L1.83582 7.59715C1.47087 6.9322 1.07139 5.67022 1.07139 4.88316C1.07139 2.54444 2.79526 1.04644 4.99984 1.04644ZM4.99984 2.44164C3.62546 2.44164 2.49998 3.541 2.49998 4.88313C2.49998 6.22542 3.62562 7.32462 4.99984 7.32462C6.37422 7.32462 7.4997 6.22527 7.4997 4.88313C7.4997 3.54084 6.37406 2.44164 4.99984 2.44164ZM4.99984 3.48809C5.79513 3.48809 6.4284 4.10654 6.4284 4.88329C6.4284 5.66004 5.79516 6.27849 4.99984 6.27849C4.20452 6.27849 3.57128 5.66004 3.57128 4.88329C3.57128 4.10654 4.20452 3.48809 4.99984 3.48809Z" fill="#A0130C"/>
</svg>
